<svg width="1240" height="322" viewBox="0 0 1240 322" fill="none" xmlns="http://www.w3.org/2000/svg">
<path d="M255.61 236.49C258.67 236.49 262.85 236.04 263.75 237.57C264.24 238.44 264.2 240.18 263.75 240.91C262.98 242.23 259.37 241.99 257.42 241.99C255.02 241.99 251.92 241.61 250.53 242.41C248.76 243.42 248.65 248.22 250.36 249.33C252.48 250.69 255.96 248.84 257.14 250.83C257.45 251.42 257.42 253.68 257.14 254.14C255.82 256.4 250.98 254.21 249.66 256.37C248.13 258.91 250.74 265.9 248.16 267.4C247.57 267.75 245.79 267.96 244.86 267.4C242.81 266.22 243.75 256.16 243.75 252.79V244.93C243.75 242.84 243.33 238.91 244.17 237.59C244.62 236.86 245.84 236.72 246.22 236.62C248.41 236.27 251.51 236.52 255.61 236.52" fill="black"/>
<path d="M282.95 236.53C285.77 236.53 290.12 236.08 291.02 237.61C291.44 238.37 291.44 240.08 291.02 240.78C289.49 243.46 280.58 240.78 277.87 242.28C276.03 243.36 276.13 248.23 277.76 249.27C279.99 250.7 284.55 248.57 285.83 250.77C286.25 251.47 286.25 253.31 285.83 254.08C284.37 256.58 280.51 254.08 277.86 255.58C276.54 256.34 275.81 260.52 277.75 261.74C280.08 263.24 289.02 260.49 290.62 263.24C290.93 263.87 291.07 265.71 290.62 266.55C289.61 268.25 284.5 267.63 281.3 267.63C278.27 267.63 273.12 268.26 271.84 266.8C270.9 265.76 271.18 262.42 271.18 259.84V244.78C271.18 240.81 270.45 237.27 273.65 236.71C275.35 236.4 279.15 236.57 282.94 236.57" fill="black"/>
<path d="M319.35 241.09C319.45 242.62 317.89 244.12 316.78 244.22C315.14 244.43 313.47 242.72 311.6 242.2C310.07 241.78 308.12 241.75 306.8 242.3C306.24 242.54 304.64 243.27 304.64 245.19C304.64 247.56 307.46 248.43 309.27 248.88C312.96 249.85 316.89 250.58 318.94 252.85C321.69 255.81 321.65 260.99 319.22 264.05C315.67 268.5 308.3 268.54 303.15 266.21C301.58 265.55 298.42 264.23 298.35 262.14C298.31 260.96 299.57 259.18 301.06 259.15C302.63 259.05 303.77 260.54 305.44 261.31C308.15 262.56 315.49 263.4 315.29 258.46C315.12 255.57 311.99 255.09 309.41 254.46C306.38 253.8 303.81 253.1 302.17 251.92C299.39 249.87 297.82 245.41 299.56 241.66C300.74 239.12 304.15 236.72 308.57 236.48C311.94 236.31 319.11 238.15 319.35 241.11" fill="black"/>
<path d="M337.72 236.53C340.54 236.53 345.27 236.08 346.17 237.61C346.62 238.41 346.59 240.22 346.17 240.95C345.02 242.9 340.78 241.19 339.39 243C338.66 243.97 338.87 247.07 338.87 249.09V262.07C338.87 264.26 339.01 266.7 337.72 267.46C336.92 267.91 334.9 267.7 334.45 267.46C332.54 266.35 333.34 258.76 333.34 255.7V249.23C333.34 246.62 333.72 243.42 332.23 242.48C330.18 241.16 326.94 242.76 325.86 240.95C324.57 238.72 326.14 236.95 327.95 236.64C330.28 236.26 333.66 236.54 337.73 236.54" fill="black"/>
<path d="M359.12 244.11V260.5C359.12 263.28 359.47 266.59 358.01 267.42C357.24 267.87 355.36 267.84 354.67 267.42C353.45 266.69 353.59 263.52 353.59 260.63V244.8C353.59 242.12 352.86 237.32 355.36 236.62C359.6 235.47 359.12 239.79 359.12 244.1" fill="black"/>
<path d="M373.11 241.33C374.54 245.09 375.37 247.8 376.94 251.8C377.46 253.12 378.51 256.11 379.55 256.22C381.22 256.32 382.02 252.74 382.44 251.66C383.97 247.69 385.08 245.05 386.58 241.22C387.28 239.45 387.8 237.29 389.33 236.66C390.72 236.1 392.98 236.56 393.3 237.63C393.68 238.81 392.67 240.55 392.22 241.77C389.82 247.93 387.45 254.12 385.09 260.31C384.19 262.57 383.35 266.33 381.64 267.2C376.88 269.6 375.48 263.27 374.34 260.31C371.8 253.73 369.75 248.41 367.21 241.77C366.31 239.44 365.02 236.9 368.18 236.55C371.24 236.17 372.11 238.81 373.12 241.32" fill="black"/>
<path d="M411.73 243.7C413.57 248.5 415.52 253.69 417.51 258.87C418.28 260.85 420.61 264.92 419.6 266.73C418.97 267.84 417.06 268.05 415.56 267.29C413.51 266.25 413.82 262.59 411.46 261.65C409.69 260.92 402.97 260.92 401.09 261.65C398.9 262.48 399.21 266.14 396.95 267.29C395.66 267.95 393.37 267.81 392.81 266.91C391.8 265.34 394.17 261 394.9 259.15C396.85 254.04 398.87 248.99 400.67 244.26C401.82 241.23 402.41 236.82 405.89 236.54C409.61 236.23 410.52 240.61 411.74 243.71M409.24 254.32C409.55 252.41 407.54 247.68 405.9 248.13C404.75 248.44 403.05 252.65 403.33 254.18C403.61 256.16 409 256.03 409.24 254.32Z" fill="black"/>
<path d="M432.4 242.55V255.18C432.4 257.86 431.98 260.61 433.37 261.65C434.9 262.8 437.93 262.17 441.06 262.17C442.94 262.17 447.25 261.89 448.05 263.25C448.4 263.88 448.61 265.44 448.05 266.42C446.94 268.33 441.23 267.53 437.89 267.53C435.53 267.53 429.09 268.36 427.59 266.7C426.76 265.76 426.93 261.97 426.93 259.71V244.61C426.93 241.51 426.23 237.3 428.7 236.64C432.42 235.63 432.39 239.21 432.39 242.55" fill="black"/>
<path d="M499.37 240.6C501.87 242.93 504.24 247.25 504.28 252.04C504.28 261.26 497.11 267.7 488.55 267.73C479.71 267.76 472.75 261.12 472.75 252.04C472.75 247.55 474.56 243.93 476.99 241.4C479.36 238.89 482.56 236.88 487.11 236.49C492.15 236.07 496.57 238.02 499.36 240.6M483.64 261.23C490.56 264.85 499.85 259.67 498.67 250.45C498.04 245.37 493.07 241.13 487.36 241.82C482.07 242.45 477.76 246.76 478.21 252.85C478.49 256.71 480.75 259.7 483.64 261.23Z" fill="black"/>
<path d="M523.35 236.49C526.41 236.49 530.59 236.04 531.49 237.57C531.98 238.44 531.94 240.18 531.49 240.91C530.72 242.23 527.11 241.99 525.16 241.99C522.76 241.99 519.66 241.61 518.27 242.41C516.5 243.42 516.39 248.22 518.1 249.33C520.22 250.69 523.7 248.84 524.88 250.83C525.19 251.42 525.16 253.68 524.88 254.14C523.56 256.4 518.72 254.21 517.4 256.37C515.87 258.91 518.48 265.9 515.9 267.4C515.31 267.75 513.53 267.96 512.6 267.4C510.55 266.22 511.49 256.16 511.49 252.79V244.93C511.49 242.84 511.07 238.91 511.91 237.59C512.36 236.86 513.58 236.72 513.96 236.62C516.15 236.27 519.25 236.52 523.35 236.52" fill="black"/>
<path d="M575.43 243.7C577.27 248.5 579.22 253.69 581.21 258.87C581.98 260.85 584.31 264.92 583.3 266.73C582.67 267.84 580.76 268.05 579.27 267.29C577.22 266.25 577.53 262.59 575.17 261.65C573.39 260.92 566.68 260.92 564.8 261.65C562.61 262.48 562.92 266.14 560.66 267.29C559.37 267.95 557.08 267.81 556.52 266.91C555.51 265.34 557.88 261 558.61 259.15C560.56 254.04 562.58 248.99 564.38 244.26C565.53 241.23 566.12 236.82 569.6 236.54C573.32 236.23 574.23 240.61 575.44 243.71M572.94 254.32C573.25 252.41 571.24 247.68 569.6 248.13C568.45 248.44 566.75 252.65 567.03 254.18C567.31 256.16 572.7 256.03 572.94 254.32Z" fill="black"/>
<path d="M607.41 239.03C608.63 240.25 609.53 242.2 609.74 244.39C609.91 246.48 610.02 250.58 609.18 252.74C608.45 254.69 606.15 255.59 605.88 257.68C605.74 259.14 606.85 260.88 607.55 262.34C608.07 263.49 609.5 265.72 608.91 266.9C608.28 268.22 606.02 267.8 605.08 267C602.65 265.09 602.33 257.85 598.47 257.95C594.09 258.09 597.95 265.74 595.06 267.45C594.68 267.66 592.76 267.94 591.89 267.45C589.84 266.27 590.78 256.39 590.78 252.87V245.04C590.78 240.73 590.05 237.35 593.25 236.79C598.19 235.96 604.84 236.44 607.41 239.02M596.56 251.23C597.53 252.8 601.81 252.94 603.41 251.33C605.12 249.66 604.73 244.13 603.17 242.84C602.23 242.08 600.42 241.87 598.61 242.18C597.57 242.32 596.97 242.49 596.56 243.12C595.76 244.41 595.83 250.04 596.56 251.23Z" fill="black"/>
<path d="M629.19 236.53C632.01 236.53 636.74 236.08 637.64 237.61C638.09 238.41 638.06 240.22 637.64 240.95C636.49 242.9 632.25 241.19 630.86 243C630.13 243.97 630.34 247.07 630.34 249.09V262.07C630.34 264.26 630.48 266.7 629.19 267.46C628.39 267.91 626.37 267.7 625.92 267.46C624.01 266.35 624.81 258.76 624.81 255.7V249.23C624.81 246.62 625.19 243.42 623.7 242.48C621.65 241.16 618.41 242.76 617.33 240.95C616.04 238.72 617.61 236.95 619.42 236.64C621.75 236.26 625.13 236.54 629.2 236.54" fill="black"/>
<path d="M663.39 241.09C663.49 242.62 661.93 244.12 660.82 244.22C659.18 244.43 657.52 242.72 655.64 242.2C654.11 241.78 652.16 241.75 650.84 242.3C650.28 242.54 648.68 243.27 648.68 245.19C648.68 247.56 651.5 248.43 653.31 248.88C657 249.85 660.93 250.58 662.98 252.85C665.73 255.81 665.69 260.99 663.26 264.05C659.71 268.5 652.34 268.54 647.19 266.21C645.62 265.55 642.46 264.23 642.39 262.14C642.35 260.96 643.61 259.18 645.1 259.15C646.67 259.05 647.81 260.54 649.48 261.31C652.19 262.56 659.53 263.4 659.33 258.46C659.16 255.57 656.03 255.09 653.45 254.46C650.42 253.8 647.85 253.1 646.21 251.92C643.43 249.87 641.86 245.41 643.6 241.66C644.78 239.12 648.19 236.72 652.61 236.48C655.98 236.31 663.15 238.15 663.39 241.11" fill="black"/>
<path d="M708.63 243.7C710.47 248.5 712.42 253.69 714.41 258.87C715.18 260.85 717.51 264.92 716.5 266.73C715.87 267.84 713.96 268.05 712.46 267.29C710.41 266.25 710.72 262.59 708.36 261.65C706.58 260.92 699.87 260.92 697.99 261.65C695.8 262.48 696.11 266.14 693.85 267.29C692.56 267.95 690.27 267.81 689.71 266.91C688.7 265.34 691.07 261 691.8 259.15C693.75 254.04 695.77 248.99 697.57 244.26C698.72 241.23 699.31 236.82 702.79 236.54C706.51 236.23 707.42 240.61 708.63 243.71M706.13 254.32C706.44 252.41 704.43 247.68 702.79 248.13C701.64 248.44 699.94 252.65 700.22 254.18C700.5 256.16 705.89 256.03 706.13 254.32Z" fill="black"/>
<path d="M732.5 241.26C734.9 244.74 736.36 246.93 738.87 250.65C739.64 251.8 741.52 254.79 742.59 254.65C744.19 254.44 743.67 248.32 743.67 245.67C743.67 242.78 742.97 237.88 744.78 236.83C745.48 236.41 747.08 236.27 748.09 236.83C749.48 237.63 749.2 241.11 749.2 243.86V259.86C749.2 261.95 749.55 266.02 748.36 267.06C747.63 267.72 745.65 267.93 744.36 267.48C742.9 266.92 741.61 264.63 740.64 263.2C738.41 259.96 736.53 257.15 734.27 253.81C733.54 252.7 731.73 249.5 730.55 249.67C728.88 249.88 729.47 256.14 729.47 258.51C729.47 262.09 729.92 266.41 728.36 267.31C727.7 267.69 725.93 267.9 724.88 267.31C723.56 266.58 723.8 263.34 723.8 260.56V244.83C723.8 240.45 723.07 236.9 726.41 236.59C729.79 236.17 730.86 238.92 732.5 241.25" fill="black"/>
<path d="M775.5 239.56C779.12 241.92 782.39 246.21 782.42 252.05C782.49 260.92 775.7 267.22 766.8 267.57C764.23 267.64 758.69 268.23 757.16 266.87C756.22 266 756.36 262.24 756.36 260.09V244.85C756.36 241.51 755.46 237.41 758.8 236.85C765.44 235.7 772.02 237.27 775.5 239.56ZM761.79 252.47C761.79 255.43 761.37 260.16 762.45 261.41C763.81 262.91 768.26 262.21 770.07 261.58C772.3 260.78 774.24 259.07 775.22 257.61C780.4 250.06 772.96 240.77 764.23 242.27C763.6 242.37 762.63 242.55 762.21 243.21C761.06 244.98 761.79 249.02 761.79 252.46" fill="black"/>
<path d="M829.67 237.99C831.44 238.9 834.57 240.98 834.54 243.03C834.54 244.28 833.25 245.47 831.93 245.53C830.57 245.6 829.49 244.45 828.97 244.07C828.2 243.48 827.3 242.75 826.36 242.33C817.28 238.78 809.35 248.49 813.21 256.56C814.95 260.18 819.89 264.07 826.19 261.71C827.2 261.33 828.24 260.67 828.97 260.11C829.49 259.73 830.22 258.51 831.75 258.51C833.28 258.51 834.5 259.83 834.53 261.05C834.63 263.21 831.85 264.63 830.32 265.57C827.61 267.14 825.14 267.94 821.31 267.66C812.96 267.07 806.98 260.67 806.84 252.28C806.77 248 808.34 244.38 810.94 241.56C813.41 238.88 816.51 236.9 821.03 236.52C823.47 236.28 826.98 236.62 829.66 237.98" fill="black"/>
<path d="M847.04 247.56C847.04 254.27 846.45 260.5 851.98 262C856.43 263.22 859.77 259.77 860.16 255.74C860.47 252.5 860.16 248.78 860.16 245.65C860.16 242.14 859.6 237.72 861.24 236.78C862.08 236.29 863.85 236.36 864.54 236.78C865.86 237.54 865.62 240.22 865.62 242.35C865.62 248.19 866 257.97 864.4 261.21C862.63 264.79 858.69 267.75 853.58 267.75C848.92 267.75 845.48 265.42 843.53 262.29C841.02 258.39 841.62 249.77 841.62 242.53C841.62 239.89 841.2 237.24 843.39 236.61C848.54 235.22 847.04 243.53 847.04 247.57" fill="black"/>
<path d="M878.21 242.55V255.18C878.21 257.86 877.79 260.61 879.18 261.65C880.71 262.8 883.74 262.17 886.87 262.17C888.75 262.17 893.06 261.89 893.86 263.25C894.21 263.88 894.42 265.44 893.86 266.42C892.75 268.33 887.04 267.53 883.7 267.53C881.33 267.53 874.9 268.36 873.4 266.7C872.56 265.76 872.74 261.97 872.74 259.71V244.61C872.74 241.51 872.04 237.3 874.51 236.64C878.23 235.63 878.2 239.21 878.2 242.55" fill="black"/>
<path d="M904.83 236.53C907.65 236.53 912.38 236.08 913.28 237.61C913.73 238.41 913.7 240.22 913.28 240.95C912.13 242.9 907.89 241.19 906.5 243C905.77 243.97 905.98 247.07 905.98 249.09V262.07C905.98 264.26 906.12 266.7 904.83 267.46C904.03 267.91 902.01 267.7 901.56 267.46C899.65 266.35 900.45 258.76 900.45 255.7V249.23C900.45 246.62 900.83 243.42 899.34 242.48C897.29 241.16 894.05 242.76 892.97 240.95C891.68 238.72 893.25 236.95 895.06 236.64C897.39 236.26 900.77 236.54 904.84 236.54" fill="black"/>
<path d="M926.09 247.56C926.09 254.27 925.5 260.5 931.03 262C935.48 263.22 938.82 259.77 939.21 255.74C939.52 252.5 939.21 248.78 939.21 245.65C939.21 242.14 938.65 237.72 940.29 236.78C941.13 236.29 942.9 236.36 943.59 236.78C944.91 237.54 944.67 240.22 944.67 242.35C944.67 248.19 945.05 257.97 943.45 261.21C941.68 264.79 937.74 267.75 932.63 267.75C927.97 267.75 924.52 265.42 922.58 262.29C920.07 258.39 920.67 249.77 920.67 242.53C920.67 239.89 920.25 237.24 922.45 236.61C927.6 235.22 926.1 243.53 926.1 247.57" fill="black"/>
<path d="M968.57 239.03C969.79 240.25 970.69 242.2 970.9 244.39C971.07 246.48 971.18 250.58 970.34 252.74C969.61 254.69 967.31 255.59 967.04 257.68C966.9 259.14 968.01 260.88 968.71 262.34C969.23 263.49 970.66 265.72 970.07 266.9C969.44 268.22 967.18 267.8 966.24 267C963.81 265.09 963.49 257.85 959.63 257.95C955.25 258.09 959.11 265.74 956.22 267.45C955.84 267.66 953.92 267.94 953.05 267.45C951 266.27 951.94 256.39 951.94 252.87V245.04C951.94 240.73 951.21 237.35 954.41 236.79C959.35 235.96 966 236.44 968.57 239.02M957.72 251.23C958.69 252.8 962.97 252.94 964.57 251.33C966.28 249.66 965.89 244.13 964.33 242.84C963.39 242.08 961.58 241.87 959.77 242.18C958.73 242.32 958.13 242.49 957.72 243.12C956.92 244.41 956.99 250.04 957.72 251.23Z" fill="black"/>
<path d="M989.87 236.53C992.69 236.53 997.04 236.08 997.94 237.61C998.36 238.37 998.36 240.08 997.94 240.78C996.41 243.46 987.5 240.78 984.79 242.28C982.95 243.36 983.05 248.23 984.69 249.27C986.92 250.7 991.47 248.57 992.76 250.77C993.18 251.47 993.18 253.31 992.76 254.08C991.3 256.58 987.44 254.08 984.79 255.58C983.47 256.34 982.74 260.52 984.69 261.74C987.02 263.24 995.96 260.49 997.56 263.24C997.87 263.87 998.01 265.71 997.56 266.55C996.55 268.25 991.44 267.63 988.24 267.63C985.21 267.63 980.06 268.26 978.78 266.8C977.84 265.76 978.12 262.42 978.12 259.84V244.78C978.12 240.81 977.39 237.27 980.59 236.71C982.29 236.4 986.09 236.57 989.88 236.57" fill="black"/>
<path d="M6.51 161.88C19.91 162.03 101.78 153.37 135.29 113.02C135.39 112.89 135.5 112.73 135.6 112.59C138.22 83.4601 143.58 53.8101 152.4 24.5601C132.16 68.8901 113.44 111.45 106.1 121.41C78.43 155.65 10.99 161.58 0 161.29C10.87 161.67 74.21 171.61 105.43 203.86C126.72 229.33 150.33 294.77 153.52 298.18C145.95 272.55 139.88 243.07 136.52 211.31C136.19 210.92 135.85 210.54 135.52 210.17C96.86 173.12 19.76 162.07 6.5 161.89" fill="#EDA7CA"/>
<path d="M173.85 220.59C169.37 213.04 164.76 206.26 160.24 201.17C129.1 170.94 65.74 161.5 54.87 161.15C65.85 161.43 133.33 155.76 160.91 123.62C163.2 120.69 166.61 114.75 170.81 106.71C173.79 71.38 180.64 35.36 192.44 0.0100098C167.18 50.61 144.67 100.12 135.58 112.6C135.48 112.74 135.37 112.9 135.27 113.03C101.76 153.38 19.9 162.04 6.48999 161.89C19.75 162.08 96.85 173.12 135.51 210.17C135.84 210.54 136.17 210.93 136.51 211.31C162.59 241.61 192.96 314.8 197.05 318.44C186.95 289.82 178.71 256.58 173.84 220.6" fill="#F26B24"/>
<path d="M54.8701 161.14C65.7301 161.49 129.1 170.93 160.24 201.17C164.77 206.26 169.37 213.04 173.85 220.59C190.43 248.54 205.26 287.04 207.71 289.54C187.11 221.82 177.95 125.02 206.63 32.8501C193.04 61.3101 180.01 89.0701 170.81 106.7C166.61 114.75 163.21 120.68 160.91 123.61C133.32 155.75 65.8501 161.42 54.8701 161.14Z" fill="#86D0CC"/>
<path d="M1134.07 118.12C1112.78 92.6501 1089.17 27.21 1085.98 23.8C1093.55 49.43 1099.62 78.91 1102.98 110.67C1103.31 111.06 1103.64 111.44 1103.98 111.81C1142.64 148.86 1219.74 159.91 1233 160.09C1219.6 159.94 1137.73 168.6 1104.22 208.95C1104.12 209.08 1104.01 209.24 1103.91 209.38C1101.29 238.51 1095.93 268.17 1087.11 297.41C1107.35 253.08 1126.07 210.52 1133.42 200.56C1161.07 166.32 1228.52 160.39 1239.51 160.68C1228.64 160.3 1165.3 150.36 1134.08 118.11" fill="#EDA7CA"/>
<path d="M1232.99 160.1C1219.73 159.91 1142.63 148.87 1103.97 111.82C1103.64 111.45 1103.31 111.06 1102.98 110.68C1076.9 80.38 1046.53 7.19005 1042.44 3.55005C1052.54 32.17 1060.78 65.41 1065.65 101.39C1070.13 108.94 1074.74 115.72 1079.26 120.81C1110.4 151.04 1173.76 160.48 1184.63 160.84C1173.65 160.55 1106.17 166.23 1078.59 198.37C1076.3 201.3 1072.89 207.24 1068.69 215.28C1065.71 250.61 1058.86 286.63 1047.05 321.98C1072.31 271.38 1094.82 221.87 1103.91 209.39C1104.01 209.25 1104.12 209.09 1104.22 208.96C1137.73 168.61 1219.59 159.95 1233 160.1" fill="#F26B24"/>
<path d="M1184.63 160.83C1173.76 160.48 1110.4 151.04 1079.26 120.81C1074.73 115.72 1070.13 108.94 1065.65 101.39C1049.07 73.44 1034.24 34.9399 1031.79 32.4399C1052.39 100.16 1061.55 196.96 1032.87 289.13C1046.46 260.67 1059.49 232.91 1068.7 215.28C1072.9 207.24 1076.3 201.3 1078.59 198.37C1106.18 166.23 1173.65 160.56 1184.63 160.84" fill="#86D0CC"/>
<path d="M353.47 157.9C353.31 149.77 352.11 142.76 349.59 136.83C346.9 135.35 344.83 133.07 342.71 130.88C339.95 129.63 337.26 128.53 334.43 127.64C329.97 128.01 325.54 128.08 320.82 127.48C313.01 126.48 306.31 128.05 298.56 128.7C286.66 129.7 270.26 126.53 265.73 113.68C261.58 101.91 273.58 92.8499 283.57 89.8799C295.33 86.3799 307.67 88.6299 319.74 88.3599C323.13 87.7599 326.53 87.3499 329.96 87.2199C332.06 87.1399 333.64 84.1299 333.51 80.7299C333.51 78.2699 333.06 71.8299 329.66 70.1999C325.99 68.4499 321.88 67.0299 317.83 66.9399C311.85 66.7899 309.63 66.6699 305.26 67.2599C300.67 67.8799 296.01 67.7999 291.45 68.5199C281.69 70.0799 271.78 73.5599 262.46 76.7499C260.88 77.2899 259.26 77.8799 257.66 78.5699C255.35 80.2399 253.14 82.2599 251.02 84.4399C247.5 88.2099 245.34 93.4999 243.88 99.6799C241.28 110.21 242.7 123.07 247.46 130.59C252.51 138.78 258.13 145.13 265.16 147.12C268.48 148.12 271.93 149.12 275.26 150.35C280.19 152.42 285.29 152 290.1 150.9C298.6 149.24 306.97 149.53 316.06 151.21C317.67 150.97 319.29 150.87 320.94 150.97C324.89 151.21 328.94 154.01 327.6 157.52C327.66 158.03 327.67 158.55 327.58 159.03C324.88 174.14 302.69 175.43 291.11 176.66C281.34 177.7 271.78 178.18 261.94 178.26C256.71 178.3 250.17 177.73 245.26 179.69C243.96 180.21 242.13 181.37 240.55 182.84C240.52 184.54 240.55 186.25 240.66 188C241.44 197.72 245.2 203.23 250.61 204.15C251.8 204.33 252.71 204.07 253.75 204.03C258.33 203.85 263.06 203.89 267.64 203.71C275.36 203.18 283.09 202.87 290.66 202.12C299.29 201.33 307.89 199.85 316.53 199.51C328.71 199.03 339.1 189.78 348.47 177.85C352.22 173.17 353.67 166.54 353.46 157.93" fill="black"/>
<path d="M416.17 185.86C408.95 185.63 401.63 185.12 394.41 185.15C384.93 185.23 377.51 180.67 370.99 173.63C367.33 169.58 365.59 164.8 364.84 159.01C363.53 148.48 364.22 138.14 364.45 127.52C364.59 119.52 364.37 111.65 363.45 103.75C362.99 99.8 363.98 98.26 367.45 97.19C368.88 96.84 370.19 96.62 371.49 96.67C374.8 96.78 377.72 98.18 380.84 100.38C382.58 101.62 383.58 103.62 384.22 105.74C385.6 110.77 386.73 115.92 386.44 121.29C386.12 127.44 385.68 133.72 385.24 139.87C385.01 143.4 384.65 146.93 384.78 150.35C384.92 153.24 385.65 156.28 386.27 159.18C386.67 161.29 388.06 162.52 390.06 162.84C397.24 164.12 404.31 165.27 411.49 166.42C423.04 168.11 434.36 165.72 445.58 163.07C450.36 161.78 455.65 159.33 456.44 153.19C457.37 146.53 459.24 140.04 459.69 133.36C460.27 126.3 461.56 119.52 462.5 112.47C463.22 108.43 464.81 106.91 468.49 106.76C469.68 106.67 470.74 106.7 471.8 106.87C476.04 107.53 477.87 109.43 477.83 114.28C477.87 120.31 477.56 126.2 477.24 132.23C476.76 139.69 476.04 147.14 475.09 154.58C473.27 166.85 469.61 177.48 458.2 182.36C448.23 186.76 441.71 187.07 431.18 186.72L421.13 186.26C419.47 186.21 417.7 186.15 416.04 186.09L416.17 185.83V185.86Z" fill="black"/>
<path d="M562.03 178.4C549.83 164.34 537.75 150.28 525.67 136.23C522.65 132.79 519.62 129.64 516.34 126.62C514.24 124.52 511.89 122.55 508.38 123.02C508.18 125.48 507.75 127.65 507.67 129.97C507.26 142.46 506.62 154.93 505 167.38C504.66 170.28 504.69 173.18 504.47 176.08C504.1 180.14 503.84 184.34 503.34 188.54C503.03 191.04 502.7 192.48 501.97 193.32L585.1 198.91C584.81 198.72 584.54 198.52 584.27 198.29C576.51 192.22 568.75 186.16 562.01 178.38" fill="#EDA7CA"/>
<path d="M598.32 100.66C595.57 99.9901 592.81 99.4601 590.06 98.9401C586.23 98.0901 584 99.9001 583.85 104.41C583.38 115.15 582.67 125.88 583.05 136.51C583.46 146.26 583.5 155.86 583.55 165.59C583.63 166.75 583.83 168.21 582.12 168.74C578.62 164.99 575.01 161.39 571.52 157.49C561.87 146.42 551.98 135.49 542.47 124.28C535.97 116.66 529.59 108.89 522.45 102.26C520.93 100.9 519.3 99.1101 517.5 98.7601C511.76 97.4101 506.03 95.6301 500.11 96.0101C491.16 96.7401 492.02 96.3301 491.1 106.04C490.42 112.27 490.33 118.52 490 124.9C489.95 126.35 490.02 127.95 489.97 129.55C489 148.12 488.16 166.55 487.19 185.13C487.15 186.44 487.11 187.74 487.19 189.05C487.58 191.97 488.97 193.76 491.37 194.13C493.41 194.34 495.34 194.4 497.27 194.47C499.78 194.47 501.15 194.31 502 193.35C502.74 192.51 503.07 191.06 503.37 188.57C503.87 184.37 504.13 180.17 504.5 176.11C504.71 173.21 504.69 170.3 505.02 167.41C506.63 154.96 507.28 142.48 507.68 130C507.76 127.68 508.19 125.51 508.39 123.05C511.9 122.58 514.25 124.55 516.35 126.65C519.63 129.66 522.66 132.81 525.68 136.26C537.76 150.32 549.84 164.37 562.04 178.43C568.78 186.21 576.54 192.27 584.3 198.34C584.56 198.56 584.84 198.77 585.13 198.96C586 199.52 586.96 199.88 587.87 199.91C591.37 199.88 594.75 199.7 598.25 199.52C599.94 199.43 601.3 198.31 601.61 196.29C602.07 193.25 602.53 190.22 602.51 187.16C602.52 164.63 601.56 142.22 602.66 119.73C602.79 115.81 603.04 111.89 603.04 107.97C603.06 103.61 601.68 101.53 598.34 100.69" fill="black"/>
<path d="M714.3 135.12C714.51 132.7 714.73 130.1 714.81 127.49C715.01 117.43 711.96 113.23 705.28 110.96C701.61 109.72 697.79 109.04 693.97 108.36C679.62 105.65 665.19 105.37 650.76 105.09C649.7 105.05 648.62 105.77 647.28 106.1C646.91 129.76 646.68 152.87 646.32 176.16C646.28 177.28 646.37 178.59 646.46 179.89C646.44 180.45 646.82 181.02 647.19 181.96C649.17 182.21 651.43 181.91 653.58 181.05C660.02 178.65 666.32 176.25 672.75 174.22C681.32 171.52 689.05 165.99 696.53 159.9C699.11 157.93 701.58 155.4 704.41 154C710.87 150.85 713.48 144.04 714.3 135.12Z" fill="#86D0CC"/>
<path d="M736.5 120.56C735.47 107.48 730.73 98.37 722.72 92.33C720.39 90.58 717.92 89.19 715.3 88.17C701.58 82.32 687.24 83.34 673.04 84C667.6 84.2 662.27 85.33 656.85 84.78C648.4 83.95 640.14 85.35 631.99 87.51C628.11 88.5 626.58 91.0601 627.47 96.1301C628.47 101.94 628.16 107.52 628.11 113.11C627.84 125.59 627.3 137.88 626.9 150.36H626.77C626.59 159.86 626.55 169.36 626.24 178.86C626.06 184.26 625.76 189.66 625.58 194.87C625.38 201.02 626.24 203.1 630.02 204.9C636.02 207.71 641.88 210.88 648.4 209.97C651.59 209.7 654.77 209.62 657.83 209.16C661.96 208.55 665.96 207.75 669.95 207.32C681.13 205.82 691.84 202.25 702 195.5C718.52 184.48 730.07 167.33 735.13 142.33C736.56 135.11 737.05 128.04 736.5 120.56ZM672.76 174.22C666.33 176.25 660.03 178.65 653.59 181.05C651.44 181.91 649.18 182.21 647.2 181.96C646.83 181.02 646.45 180.44 646.47 179.89C646.38 178.58 646.29 177.27 646.33 176.16C646.69 152.87 646.92 129.76 647.29 106.1C648.62 105.77 649.71 105.06 650.77 105.09C665.2 105.37 679.63 105.66 693.98 108.36C697.8 109.04 701.62 109.73 705.29 110.97C711.97 113.24 715.01 117.44 714.82 127.5C714.74 130.11 714.52 132.71 714.31 135.13C713.49 144.05 710.88 150.87 704.42 154.01C701.59 155.41 699.13 157.94 696.54 159.9C689.06 166 681.33 171.52 672.76 174.23" fill="black"/>
<path d="M849.06 141.52C848.3 140.73 847.34 139.96 846.36 139.38C845.74 138.96 845.04 138.45 844.45 137.84C836.06 130.68 815.18 111.16 812.87 108.98C811.77 107.84 810.28 106.73 808.73 106.7C802.19 105.53 789.99 104.56 783.11 109.81C779.7 112.58 776.28 115.35 773.12 118.38C769.65 121.54 768.01 125.48 768.51 129.39C769.01 132.63 769.29 136.08 770.44 138.86C772.77 144.9 778.17 153.92 782.48 158.41C793.37 169.77 808.1 174.06 824.79 176.31C835.67 177.71 845.88 172.31 852.38 161.68C853.04 160.78 853.55 159.87 853.9 158.97C854.4 157.66 854.86 156.38 854.05 153.72C852.97 149.2 852.11 144.67 849.08 141.51" fill="#F26B24"/>
<path d="M864.47 129.11C861.46 125.75 858.14 122.51 854.93 119.16C848.88 111.27 841.37 104.79 832.55 99.89C829.85 98.43 827.17 96.77 825.03 94.76C821.34 91.37 816.75 88.84 812.11 86.71C807.21 84.31 801.66 84.4 795.71 86.56C789.99 88.5 784.06 91.14 778.84 94.96C769.9 101.68 760.93 108.6 753.89 117.54C748.75 124.16 746.43 130.78 747.69 137.51C749.34 145.56 751.22 153.39 755.97 159.48C758.16 162.45 760.47 165.3 762.24 168.5C763.48 170.69 764.94 172.67 766.71 174.52C770.93 178.92 776.39 182.13 781.66 185.36C785.4 187.68 789.72 189.46 793.69 191.57C797.13 193.35 800.56 195.12 804.62 195.96C816.79 198.48 829.56 196.88 842.82 192.62C853.73 189.08 862.73 181.97 868.47 171.23C876.72 155.88 873.31 139.21 864.47 129.1M853.88 158.97C853.53 159.87 853.02 160.78 852.36 161.68C845.86 172.3 835.65 177.7 824.77 176.31C808.09 174.06 793.36 169.77 782.46 158.41C778.15 153.92 772.75 144.9 770.42 138.86C769.27 136.08 768.99 132.63 768.49 129.39C767.99 125.48 769.63 121.54 773.1 118.38C776.26 115.35 779.68 112.58 783.09 109.81C789.98 104.56 802.18 105.53 808.71 106.7C810.26 106.73 811.75 107.84 812.85 108.98C815.16 111.16 836.04 130.68 844.43 137.84C845.02 138.46 845.72 138.96 846.34 139.38C847.32 139.96 848.28 140.73 849.04 141.52C852.07 144.68 852.93 149.21 854.01 153.73C854.1 154.12 854.2 154.52 854.29 154.91C854.58 156.18 854.41 157.57 853.86 158.98" fill="black"/>
<path d="M961.8 109.09C956.64 108.46 951.57 109.42 946.52 110.21C936.82 112.01 923.35 115.63 916.24 125.12C913.84 128.51 911.05 131.68 908.61 135.42C901.52 145.97 899.66 157.68 903.38 170.07C905.46 177.35 909.92 181.41 916.6 181.17C916.88 181.2 917.02 181.22 917.32 181.08L918.58 181.23C918.74 181.07 919.02 181.11 919.16 181.12C922.45 180.82 925.68 181.04 928.89 181.43C932.1 181.82 935.28 182.39 938.41 183.47C942.91 184.9 947.33 185.79 951.93 186.35C955.28 186.76 958.78 187.01 962.2 186.91C965.61 186.8 969.1 187.23 972.61 187.48C975.19 181.47 975.09 175.32 976.15 168.95C974.94 168.45 973.74 167.78 972.65 167.47C972.23 167.42 971.67 167.35 971.26 167.3L968.33 166.94C963.31 166.33 960.76 165.14 961.33 158.18C961.39 157.66 961.46 157.14 961.52 156.62C962.24 150.74 963.71 149.16 968.57 149.93C976.08 151.02 983.54 151.41 990.92 153.54C999.12 155.95 1000.16 161.34 999.01 170.69C997.79 177.21 996.54 183.91 995.32 190.43C993.18 202.11 985.15 209.91 975.53 208.73L972.58 208.54C969.93 208.22 967.26 208.06 964.59 207.91L951.69 206.86C949.58 206.78 947.35 206.5 945.23 206.42C944.25 206.3 943.4 206.37 942.56 206.27C931.8 205.13 921.02 204.16 910.34 202.33C904.64 201.46 898.95 199.36 893.73 196.96C887.03 193.86 883.63 186.94 881.97 178.49C879.66 167.32 881.01 156.25 884.74 145.46C887.79 136.7 891.38 128.19 894.97 119.67C896.41 115.98 898.77 112.93 901.59 110.65C902.85 109.58 903.96 108.66 905.22 107.58L912.32 101.6C913.56 100.7 914.83 99.62 915.93 98.71C917.03 97.79 918.26 97.06 919.59 96.52C934.14 89.87 945.64 84.96 960.84 86.82C965.44 87.38 969.84 88.45 974.32 90.05C977.56 91.33 979.31 94.35 979.25 98.38C979.22 103.29 978.3 108.45 977.55 113.45C977.32 115.35 976.15 116.79 974.51 117.47C972.89 117.98 971.58 117.11 970.63 115.59C969.82 114.09 969.04 112.41 968.11 110.72C965.96 109.75 963.89 109.33 961.8 109.07" fill="black"/>
</svg>
