<svg width="1098" height="291" viewBox="0 0 1098 291" fill="none" xmlns="http://www.w3.org/2000/svg">
<g clip-path="url(#clip0_36_389)">
<path d="M113.97 252.05C114.12 254.27 111.86 256.43 110.25 256.58C107.89 256.88 105.47 254.42 102.75 253.66C100.54 253.06 97.72 253.01 95.81 253.81C95.01 254.16 92.69 255.22 92.69 257.99C92.69 261.41 96.77 262.67 99.38 263.32C104.71 264.73 110.4 265.79 113.37 269.06C117.34 273.34 117.3 280.83 113.77 285.26C108.64 291.7 97.97 291.75 90.52 288.38C88.26 287.42 83.68 285.51 83.58 282.49C83.53 280.78 85.34 278.21 87.5 278.16C89.76 278.01 91.42 280.17 93.84 281.28C97.77 283.09 108.38 284.3 108.08 277.15C107.83 272.97 103.3 272.27 99.58 271.36C95.2 270.41 91.48 269.4 89.11 267.69C85.09 264.72 82.82 258.28 85.34 252.85C87.05 249.18 91.98 245.71 98.37 245.35C103.25 245.1 113.61 247.77 113.97 252.04" fill="white"/>
<path d="M140.54 245.46C144.62 245.46 151.46 244.81 152.77 247.02C153.42 248.18 153.37 250.79 152.77 251.85C151.11 254.67 144.97 252.2 142.96 254.82C141.9 256.23 142.21 260.71 142.21 263.63V282.4C142.21 285.57 142.41 289.09 140.55 290.2C139.39 290.85 136.47 290.55 135.82 290.2C133.05 288.59 134.21 277.62 134.21 273.19V263.83C134.21 260.06 134.76 255.43 132.6 254.07C129.63 252.16 124.95 254.47 123.39 251.86C121.53 248.64 123.79 246.07 126.41 245.62C129.78 245.07 134.66 245.47 140.55 245.47" fill="white"/>
<path d="M171.49 256.43V280.13C171.49 284.16 171.99 288.94 169.88 290.14C168.77 290.79 166.05 290.74 165.05 290.14C163.29 289.08 163.49 284.5 163.49 280.33V257.44C163.49 253.57 162.43 246.62 166.06 245.62C172.2 243.96 171.5 250.2 171.5 256.44" fill="white"/>
<path d="M191.72 252.41C193.78 257.84 194.99 261.77 197.25 267.56C198 269.47 199.51 273.8 201.02 273.95C203.44 274.1 204.59 268.92 205.2 267.36C207.41 261.62 209.02 257.8 211.19 252.27C212.2 249.7 212.95 246.58 215.16 245.68C217.17 244.87 220.44 245.53 220.9 247.09C221.45 248.8 219.99 251.32 219.34 253.08C215.87 261.98 212.45 270.94 209.03 279.9C207.72 283.17 206.51 288.6 204.05 289.86C197.16 293.33 195.15 284.17 193.48 279.9C189.81 270.39 186.84 262.69 183.17 253.08C181.86 249.71 180 246.03 184.58 245.53C189.01 244.98 190.27 248.8 191.73 252.42" fill="white"/>
<path d="M247.58 255.83C250.25 262.77 253.06 270.27 255.93 277.77C257.04 280.64 260.41 286.52 258.95 289.14C258.05 290.75 255.28 291.05 253.11 289.95C250.14 288.44 250.59 283.16 247.17 281.8C244.6 280.74 234.89 280.74 232.18 281.8C229.01 283.01 229.46 288.29 226.19 289.95C224.33 290.91 221.01 290.7 220.2 289.4C218.74 287.14 222.16 280.85 223.22 278.18C226.04 270.78 228.96 263.49 231.57 256.65C233.23 252.27 234.09 245.88 239.12 245.48C244.5 245.03 245.81 251.37 247.57 255.84M243.95 271.19C244.4 268.42 241.48 261.58 239.12 262.23C237.46 262.68 234.99 268.77 235.4 270.98C235.8 273.85 243.6 273.65 243.95 271.18" fill="white"/>
<path d="M277.47 254.17V272.43C277.47 276.3 276.87 280.28 278.88 281.79C281.09 283.45 285.47 282.55 290 282.55C292.72 282.55 298.96 282.15 300.11 284.11C300.61 285.02 300.91 287.28 300.11 288.69C298.5 291.46 290.25 290.3 285.42 290.3C282 290.3 272.69 291.51 270.53 289.09C269.32 287.73 269.57 282.25 269.57 278.98V257.14C269.57 252.66 268.56 246.57 272.14 245.62C277.52 244.16 277.47 249.34 277.47 254.17Z" fill="white"/>
<path d="M374.34 251.35C377.96 254.72 381.39 260.96 381.44 267.9C381.44 281.23 371.08 290.54 358.7 290.59C345.92 290.64 335.86 281.03 335.86 267.9C335.86 261.41 338.48 256.18 342 252.5C345.42 248.88 350.05 245.96 356.64 245.41C363.94 244.8 370.33 247.62 374.35 251.35M351.61 281.19C361.62 286.42 375.06 278.93 373.35 265.59C372.44 258.24 365.25 252.11 357 253.11C349.35 254.02 343.11 260.25 343.77 269.06C344.17 274.64 347.44 278.97 351.62 281.19" fill="white"/>
<path d="M409.01 245.41C413.44 245.41 419.48 244.76 420.78 246.97C421.48 248.23 421.43 250.74 420.78 251.8C419.67 253.71 414.44 253.36 411.62 253.36C408.15 253.36 403.67 252.81 401.66 253.96C399.09 255.42 398.94 262.36 401.41 263.97C404.48 265.93 409.51 263.27 411.22 266.13C411.67 266.98 411.62 270.26 411.22 270.91C409.31 274.18 402.32 271.01 400.4 274.13C398.19 277.8 401.96 287.92 398.24 290.08C397.38 290.58 394.82 290.89 393.46 290.08C390.49 288.37 391.85 273.83 391.85 268.95V257.58C391.85 254.56 391.25 248.88 392.45 246.96C393.1 245.9 394.87 245.7 395.42 245.55C398.59 245.05 403.07 245.4 409.01 245.4" fill="white"/>
<path d="M484.34 255.83C487.01 262.77 489.82 270.27 492.69 277.77C493.8 280.64 497.17 286.52 495.71 289.14C494.81 290.75 492.04 291.05 489.87 289.95C486.9 288.44 487.35 283.16 483.93 281.8C481.36 280.74 471.65 280.74 468.94 281.8C465.77 283.01 466.22 288.29 462.95 289.95C461.09 290.91 457.77 290.7 456.96 289.4C455.5 287.14 458.92 280.85 459.98 278.18C462.8 270.78 465.71 263.49 468.33 256.65C469.99 252.27 470.85 245.88 475.88 245.48C481.26 245.03 482.57 251.37 484.33 255.84M480.71 271.19C481.16 268.42 478.24 261.58 475.88 262.23C474.22 262.68 471.75 268.77 472.16 270.98C472.56 273.85 480.36 273.65 480.71 271.18" fill="white"/>
<path d="M530.59 249.09C532.35 250.85 533.66 253.67 533.96 256.84C534.21 259.86 534.36 265.8 533.16 268.92C532.1 271.74 528.78 273.05 528.38 276.07C528.18 278.18 529.79 280.7 530.8 282.81C531.55 284.47 533.62 287.69 532.76 289.4C531.85 291.31 528.58 290.71 527.23 289.55C523.71 286.78 523.25 276.32 517.67 276.47C511.33 276.67 516.91 287.74 512.74 290.21C512.19 290.51 509.42 290.91 508.16 290.21C505.19 288.5 506.55 274.21 506.55 269.13V257.81C506.55 251.57 505.49 246.69 510.12 245.89C517.27 244.68 526.88 245.39 530.6 249.11M514.9 266.77C516.31 269.03 522.5 269.24 524.81 266.92C527.27 264.5 526.72 256.5 524.46 254.64C523.1 253.53 520.49 253.23 517.87 253.68C516.36 253.88 515.5 254.13 514.9 255.04C513.74 256.9 513.84 265.05 514.9 266.76" fill="white"/>
<path d="M562.09 245.46C566.17 245.46 573.01 244.81 574.32 247.02C574.97 248.18 574.92 250.79 574.32 251.85C572.66 254.67 566.52 252.2 564.51 254.82C563.45 256.23 563.76 260.71 563.76 263.63V282.4C563.76 285.57 563.96 289.09 562.1 290.2C560.94 290.85 558.02 290.55 557.37 290.2C554.6 288.59 555.76 277.62 555.76 273.19V263.83C555.76 260.06 556.31 255.43 554.15 254.07C551.18 252.16 546.5 254.47 544.94 251.86C543.08 248.64 545.34 246.07 547.96 245.62C551.33 245.07 556.21 245.47 562.1 245.47" fill="white"/>
<path d="M611.56 252.05C611.71 254.27 609.45 256.43 607.84 256.58C605.48 256.88 603.06 254.42 600.34 253.66C598.13 253.06 595.31 253.01 593.4 253.81C592.6 254.16 590.28 255.22 590.28 257.99C590.28 261.41 594.36 262.67 596.97 263.32C602.3 264.73 607.99 265.79 610.96 269.06C614.93 273.34 614.88 280.83 611.36 285.26C606.23 291.7 595.56 291.75 588.11 288.38C585.85 287.42 581.27 285.51 581.17 282.49C581.12 280.78 582.93 278.21 585.09 278.16C587.35 278.01 589.01 280.17 591.43 281.28C595.35 283.09 605.97 284.3 605.67 277.15C605.42 272.97 600.89 272.27 597.17 271.36C592.79 270.41 589.07 269.4 586.7 267.69C582.68 264.72 580.41 258.28 582.93 252.85C584.64 249.18 589.57 245.71 595.96 245.35C600.84 245.1 611.2 247.77 611.56 252.04" fill="white"/>
<path d="M676.98 255.83C679.65 262.77 682.46 270.27 685.33 277.77C686.44 280.64 689.81 286.52 688.35 289.14C687.44 290.75 684.68 291.05 682.51 289.95C679.54 288.44 679.99 283.16 676.57 281.8C674 280.74 664.29 280.74 661.58 281.8C658.41 283.01 658.86 288.29 655.59 289.95C653.73 290.91 650.41 290.7 649.6 289.4C648.14 287.14 651.56 280.85 652.62 278.18C655.44 270.78 658.35 263.49 660.97 256.65C662.63 252.27 663.49 245.88 668.52 245.48C673.9 245.03 675.21 251.37 676.97 255.84M673.35 271.19C673.8 268.42 670.88 261.58 668.52 262.23C666.86 262.68 664.39 268.77 664.8 270.98C665.2 273.85 673 273.65 673.35 271.18" fill="white"/>
<path d="M711.5 252.31C714.97 257.34 717.08 260.51 720.71 265.9C721.82 267.56 724.54 271.89 726.09 271.69C728.41 271.39 727.65 262.53 727.65 258.71C727.65 254.53 726.64 247.44 729.26 245.93C730.27 245.33 732.58 245.12 734.04 245.93C736.05 247.09 735.65 252.12 735.65 256.09V279.24C735.65 282.26 736.15 288.15 734.44 289.65C733.38 290.61 730.52 290.91 728.65 290.25C726.54 289.44 724.67 286.12 723.27 284.06C720.05 279.38 717.33 275.3 714.06 270.47C713 268.86 710.39 264.23 708.68 264.48C706.27 264.78 707.12 273.84 707.12 277.26C707.12 282.44 707.77 288.68 705.51 289.99C704.55 290.54 701.99 290.84 700.48 289.99C698.57 288.93 698.92 284.25 698.92 280.23V257.49C698.92 251.15 697.86 246.02 702.69 245.56C707.57 244.96 709.13 248.93 711.5 252.3" fill="white"/>
<path d="M773.7 249.84C778.93 253.26 783.66 259.45 783.71 267.9C783.81 280.73 774 289.84 761.12 290.34C757.4 290.44 749.4 291.3 747.18 289.33C745.82 288.07 746.02 282.64 746.02 279.52V257.48C746.02 252.65 744.71 246.71 749.54 245.91C759.15 244.25 768.66 246.51 773.69 249.83M753.86 268.5C753.86 272.78 753.26 279.62 754.82 281.43C756.78 283.59 763.22 282.59 765.84 281.68C769.06 280.52 771.88 278.06 773.29 275.94C780.79 265.02 770.02 251.59 757.39 253.75C756.48 253.9 755.07 254.15 754.47 255.11C752.81 257.68 753.87 263.51 753.87 268.49" fill="white"/>
<path d="M852.05 247.58C854.62 248.89 859.14 251.91 859.09 254.88C859.09 256.69 857.23 258.4 855.32 258.5C853.36 258.6 851.8 256.94 851.04 256.39C849.93 255.54 848.62 254.48 847.27 253.88C834.14 248.75 822.67 262.79 828.25 274.46C830.77 279.69 837.91 285.33 847.02 281.91C848.48 281.36 849.99 280.4 851.05 279.59C851.81 279.04 852.86 277.28 855.07 277.28C857.28 277.28 859.05 279.19 859.1 280.95C859.25 284.07 855.22 286.13 853.01 287.49C849.08 289.75 845.51 290.91 839.98 290.51C827.9 289.65 819.25 280.4 819.05 268.27C818.95 262.08 821.21 256.85 824.99 252.77C828.56 248.9 833.04 246.03 839.58 245.47C843.1 245.12 848.18 245.62 852.06 247.58" fill="white"/>
<path d="M877.16 261.41C877.16 271.12 876.3 280.13 884.3 282.29C890.74 284.05 895.57 279.07 896.13 273.23C896.58 268.55 896.13 263.17 896.13 258.64C896.13 253.56 895.33 247.17 897.69 245.81C898.9 245.11 901.46 245.21 902.47 245.81C904.38 246.92 904.03 250.79 904.03 253.86C904.03 262.31 904.58 276.45 902.27 281.13C899.7 286.31 894.02 290.59 886.62 290.59C879.88 290.59 874.9 287.22 872.08 282.69C868.46 277.05 869.31 264.58 869.31 254.11C869.31 250.29 868.71 246.46 871.88 245.56C879.33 243.55 877.16 255.57 877.16 261.41Z" fill="white"/>
<path d="M922.25 254.17V272.43C922.25 276.3 921.65 280.28 923.66 281.79C925.87 283.45 930.25 282.55 934.78 282.55C937.5 282.55 943.74 282.15 944.89 284.11C945.39 285.02 945.7 287.28 944.89 288.69C943.28 291.46 935.03 290.3 930.2 290.3C926.78 290.3 917.47 291.51 915.31 289.09C914.1 287.73 914.35 282.25 914.35 278.98V257.14C914.35 252.66 913.34 246.57 916.92 245.62C922.3 244.16 922.25 249.34 922.25 254.17Z" fill="white"/>
<path d="M960.74 245.46C964.82 245.46 971.66 244.81 972.97 247.02C973.62 248.18 973.57 250.79 972.97 251.85C971.31 254.67 965.17 252.2 963.16 254.82C962.1 256.23 962.41 260.71 962.41 263.63V282.4C962.41 285.57 962.61 289.09 960.75 290.2C959.59 290.85 956.67 290.55 956.02 290.2C953.25 288.59 954.41 277.62 954.41 273.19V263.83C954.41 260.06 954.96 255.43 952.8 254.07C949.83 252.16 945.15 254.47 943.59 251.86C941.73 248.64 943.99 246.07 946.61 245.62C949.98 245.07 954.86 245.47 960.75 245.47" fill="white"/>
<path d="M991.49 261.41C991.49 271.12 990.63 280.13 998.63 282.29C1005.07 284.05 1009.9 279.07 1010.46 273.23C1010.91 268.55 1010.46 263.17 1010.46 258.64C1010.46 253.56 1009.65 247.17 1012.02 245.81C1013.23 245.11 1015.79 245.21 1016.8 245.81C1018.71 246.92 1018.36 250.79 1018.36 253.86C1018.36 262.31 1018.91 276.45 1016.6 281.13C1014.03 286.31 1008.35 290.59 1000.95 290.59C994.21 290.59 989.23 287.22 986.41 282.69C982.79 277.05 983.64 264.58 983.64 254.11C983.64 250.29 983.04 246.46 986.21 245.56C993.66 243.55 991.49 255.57 991.49 261.41Z" fill="white"/>
<path d="M1052.93 249.09C1054.69 250.85 1056 253.67 1056.3 256.84C1056.55 259.86 1056.7 265.8 1055.49 268.92C1054.43 271.74 1051.11 273.05 1050.71 276.07C1050.51 278.18 1052.12 280.7 1053.13 282.81C1053.88 284.47 1055.95 287.69 1055.09 289.4C1054.18 291.31 1050.91 290.71 1049.56 289.55C1046.04 286.78 1045.58 276.32 1040 276.47C1033.66 276.67 1039.24 287.74 1035.07 290.21C1034.52 290.51 1031.75 290.91 1030.49 290.21C1027.52 288.5 1028.88 274.21 1028.88 269.13V257.81C1028.88 251.57 1027.82 246.69 1032.45 245.89C1039.6 244.68 1049.21 245.39 1052.93 249.11M1037.23 266.77C1038.64 269.03 1044.83 269.24 1047.14 266.92C1049.6 264.5 1049.05 256.5 1046.79 254.64C1045.43 253.53 1042.82 253.23 1040.2 253.68C1038.69 253.88 1037.83 254.13 1037.23 255.04C1036.07 256.9 1036.17 265.05 1037.23 266.76" fill="white"/>
<path d="M1083.73 245.46C1087.81 245.46 1094.09 244.81 1095.4 247.02C1096 248.13 1096 250.59 1095.4 251.6C1093.19 255.48 1080.31 251.6 1076.38 253.76C1073.71 255.32 1073.86 262.36 1076.23 263.87C1079.45 265.93 1086.04 262.86 1087.9 266.03C1088.5 267.04 1088.5 269.7 1087.9 270.81C1085.79 274.43 1080.2 270.81 1076.38 272.97C1074.47 274.08 1073.41 280.12 1076.23 281.88C1079.6 284.04 1092.53 280.07 1094.85 284.04C1095.3 284.95 1095.5 287.61 1094.85 288.82C1093.39 291.29 1085.99 290.38 1081.37 290.38C1076.99 290.38 1069.54 291.29 1067.68 289.17C1066.32 287.66 1066.72 282.83 1066.72 279.11V257.32C1066.72 251.58 1065.66 246.45 1070.29 245.65C1072.75 245.2 1078.24 245.45 1083.72 245.45" fill="white"/>
<path d="M163.32 131.75C163.09 119.99 161.35 109.86 157.71 101.27C153.81 99.1299 150.82 95.8299 147.76 92.6599C143.76 90.8499 139.88 89.2599 135.78 87.9699C129.32 88.4999 122.93 88.6099 116.1 87.7299C104.8 86.2799 95.11 88.5599 83.91 89.4999C66.7 90.9499 42.98 86.3599 36.43 67.7799C30.42 50.7499 47.78 37.6499 62.23 33.3599C79.24 28.3099 97.09 31.5499 114.55 31.1599C119.45 30.2999 124.37 29.6999 129.32 29.4999C132.35 29.3799 134.65 25.0299 134.45 20.1199C134.45 16.5599 133.8 7.24988 128.88 4.89988C123.58 2.36988 117.63 0.31988 111.76 0.17988C103.11 -0.0301202 99.9 -0.21012 93.58 0.63988C86.94 1.52988 80.2 1.41988 73.61 2.46988C59.5 4.71988 45.17 9.74988 31.68 14.3699C29.4 15.1499 27.05 16.0099 24.74 16.9999C21.4 19.4099 18.2 22.3299 15.14 25.4899C10.04 30.9399 6.93 38.5999 4.82 47.5299C1.06 62.7599 3.12 81.3599 10 92.2299C17.3 104.07 25.44 113.26 35.6 116.13C40.4 117.58 45.39 119.02 50.2 120.8C57.34 123.8 64.71 123.18 71.67 121.59C83.96 119.18 96.06 119.61 109.21 122.04C111.54 121.7 113.89 121.54 116.26 121.69C121.97 122.04 127.83 126.09 125.9 131.16C125.99 131.9 126 132.65 125.87 133.34C121.97 155.19 89.87 157.06 73.13 158.83C58.99 160.33 45.17 161.03 30.95 161.15C23.39 161.21 13.92 160.39 6.82 163.21C4.94 163.96 2.29 165.64 0.0100015 167.76C-0.0299985 170.21 1.51992e-06 172.69 0.170002 175.22C1.29 189.27 6.73 197.25 14.56 198.58C16.28 198.84 17.59 198.46 19.11 198.4C25.74 198.14 32.57 198.2 39.2 197.94C50.36 197.17 61.54 196.73 72.5 195.64C84.98 194.49 97.41 192.36 109.92 191.87C127.53 191.18 142.56 177.8 156.11 160.55C161.53 153.78 163.62 144.19 163.32 131.75Z" fill="white"/>
<path d="M254 172.18C243.56 171.84 232.97 171.12 222.52 171.15C208.82 171.27 198.07 164.66 188.64 154.49C183.35 148.63 180.84 141.72 179.74 133.34C177.84 118.11 178.84 103.16 179.17 87.8001C179.38 76.2401 179.06 64.8501 177.72 53.4201C177.05 47.7101 178.49 45.4801 183.51 43.9401C185.58 43.4401 187.47 43.1201 189.36 43.1801C194.15 43.3401 198.36 45.3701 202.88 48.5501C205.39 50.3401 206.84 53.2301 207.76 56.2901C209.75 63.5601 211.39 71.0101 210.97 78.7701C210.51 87.6701 209.87 96.7501 209.24 105.65C208.9 110.76 208.39 115.86 208.58 120.8C208.79 124.98 209.84 129.38 210.73 133.58C211.32 136.63 213.31 138.41 216.21 138.88C226.6 140.74 236.82 142.4 247.21 144.06C263.91 146.5 280.29 143.05 296.51 139.22C303.42 137.36 311.07 133.82 312.22 124.94C313.56 115.31 316.26 105.92 316.92 96.2601C317.77 86.0501 319.63 76.2501 320.99 66.0501C322.04 60.2001 324.34 58.0001 329.65 57.8001C331.37 57.6701 332.91 57.7201 334.44 57.9601C340.57 58.9201 343.22 61.6601 343.17 68.6801C343.23 77.4101 342.78 85.9301 342.32 94.6401C341.63 105.43 340.59 116.21 339.21 126.97C336.58 144.71 331.28 160.09 314.78 167.14C300.36 173.5 290.93 173.95 275.7 173.45L261.17 172.79C258.77 172.71 256.21 172.63 253.81 172.55L253.99 172.18H254Z" fill="white"/>
<path d="M497.73 190.65C497.54 190.51 497.34 190.35 497.15 190.19C490.84 185.25 484.53 180.32 478.48 174.94C484.53 180.31 490.84 185.25 497.15 190.18C497.34 190.35 497.54 190.5 497.73 190.65Z" fill="#EDA7CA"/>
<path d="M523.69 76.4899C522.11 109.02 523.49 141.44 523.48 174.02C523.51 178.43 522.84 182.82 522.18 187.22C521.73 190.15 519.76 191.76 517.32 191.89C512.25 192.15 507.36 192.41 502.3 192.46C500.99 192.41 499.6 191.89 498.34 191.08C498.14 190.95 497.93 190.8 497.73 190.65C497.54 190.51 497.34 190.35 497.15 190.19C490.84 185.25 484.53 180.32 478.48 174.94C477.8 174.34 477.14 173.74 476.47 173.13C475.14 171.91 473.83 170.67 472.53 169.4C469.93 166.86 467.4 164.2 464.96 161.39C447.32 141.05 429.85 120.73 412.38 100.4C408 95.4199 403.62 90.8599 398.88 86.4999C395.84 83.4599 392.45 80.6199 387.37 81.2899C387.08 84.8599 386.45 87.9899 386.34 91.3499C385.76 109.41 384.82 127.46 382.49 145.46C382 149.65 382.04 153.85 381.73 158.05C381.19 163.91 380.82 170 380.1 176.07C379.65 179.68 379.18 181.77 378.11 182.99C376.89 184.38 374.9 184.62 371.27 184.61C368.49 184.52 365.7 184.43 362.75 184.12C359.28 183.59 357.27 181 356.71 176.78C356.6 174.88 356.66 172.99 356.71 171.1C358.11 144.24 359.33 117.59 360.72 90.7299C360.8 88.4199 360.7 86.0999 360.77 83.9999C361.24 74.7699 361.37 65.7299 362.36 56.7199C363.69 42.6799 362.45 43.2699 375.38 42.2199C383.94 41.6599 392.23 44.2499 400.53 46.1999C403.13 46.6999 405.49 49.2999 407.69 51.2699C418.01 60.8499 427.24 72.0799 436.64 83.1099C450.41 99.3199 464.71 115.14 478.66 131.15C483.71 136.78 488.94 141.99 494 147.41C496.46 146.65 496.18 144.54 496.06 142.85C496 128.77 495.93 114.89 495.34 100.79C494.8 85.4299 495.83 69.8999 496.51 54.3699C496.72 47.8599 499.94 45.2299 505.48 46.4599C509.47 47.2199 513.45 47.9899 517.43 48.9599C522.27 50.1599 524.27 53.1699 524.24 59.4799C524.23 65.1499 523.87 70.8199 523.68 76.4899H523.69Z" fill="white"/>
<path d="M717.28 77.74C715.79 58.82 708.94 45.65 697.35 36.92C693.98 34.38 690.41 32.38 686.62 30.91C666.78 22.44 646.04 23.92 625.51 24.87C617.65 25.15 609.93 26.79 602.1 25.99C589.88 24.79 577.93 26.82 566.15 29.94C560.54 31.38 558.31 35.08 559.61 42.4C561.06 50.81 560.61 58.88 560.53 66.97C560.14 85.02 559.37 102.79 558.78 120.84H558.59C558.33 134.57 558.26 148.32 557.82 162.06C557.56 169.87 557.12 177.67 556.87 185.21C556.58 194.1 557.83 197.11 563.3 199.71C571.98 203.77 580.45 208.36 589.88 207.05C594.49 206.66 599.09 206.54 603.52 205.88C609.49 204.99 615.27 203.84 621.04 203.21C637.21 201.04 652.7 195.89 667.39 186.12C691.28 170.18 707.99 145.38 715.3 109.22C717.36 98.77 718.08 88.55 717.28 77.74ZM685.18 98.8C683.99 111.71 680.22 121.56 670.88 126.11C666.79 128.13 663.22 131.79 659.49 134.63C648.66 143.45 637.48 151.44 625.09 155.35C615.8 158.29 606.68 161.76 597.37 165.23C594.27 166.48 591 166.91 588.13 166.55C587.6 165.19 587.05 164.36 587.08 163.55C586.95 161.66 586.82 159.77 586.87 158.15C587.4 124.47 587.72 91.04 588.26 56.82C590.19 56.34 591.76 55.31 593.29 55.36C614.16 55.78 635.03 56.19 655.78 60.1C661.31 61.09 666.83 62.08 672.14 63.87C681.8 67.15 686.2 73.22 685.92 87.77C685.8 91.54 685.48 95.31 685.18 98.8Z" fill="white"/>
<path d="M763.47 87.6001C763.44 88.2301 763.44 88.8601 763.47 89.4901C763.43 88.8601 763.43 88.2301 763.47 87.6001Z" fill="#F26B24"/>
<path d="M763.69 85.72C763.58 86.34 763.51 86.97 763.47 87.6C763.5 86.97 763.58 86.34 763.69 85.72Z" fill="#F26B24"/>
<path d="M763.58 90.5C763.76 91.67 763.92 92.86 764.08 94.05C763.92 92.86 763.76 91.67 763.57 90.5C763.53 90.17 763.5 89.84 763.48 89.51C763.5 89.84 763.54 90.17 763.58 90.5Z" fill="#F26B24"/>
<path d="M778.9 126.55C780.15 128.25 781.39 129.82 782.59 131.19C781.39 129.82 780.14 128.25 778.9 126.55Z" fill="#F26B24"/>
<path d="M783.78 132.48C784.27 132.99 784.77 133.5 785.27 133.99C784.77 133.5 784.27 133 783.77 132.48C783.38 132.07 782.99 131.64 782.59 131.19C782.99 131.64 783.39 132.07 783.78 132.48Z" fill="#F26B24"/>
<path d="M887.69 127.41C887.56 126.91 887.44 126.41 887.33 125.91C887.49 126.45 887.61 126.95 887.69 127.41Z" fill="#F26B24"/>
<path d="M887.25 132.78C887.72 131.42 887.95 130.08 887.88 128.8C888 130.46 887.67 131.65 887.25 132.78Z" fill="#F26B24"/>
<path d="M902.37 90.1001C898.02 85.2401 893.21 80.5601 888.57 75.7201C879.83 64.3101 868.96 54.9401 856.21 47.8501C852.3 45.7401 848.43 43.3401 845.33 40.4401C840 35.5301 833.36 31.8801 826.64 28.7901C819.55 25.3201 811.52 25.4501 802.92 28.5701C794.64 31.3801 786.07 35.1901 778.52 40.7201C765.59 50.4401 752.61 60.4401 742.44 73.3701C735.01 82.9401 731.66 92.5201 733.48 102.26C735.86 113.9 738.58 125.23 745.46 134.03C748.63 138.32 751.97 142.46 754.53 147.09C756.32 150.26 758.43 153.12 761 155.79C767.1 162.16 775 166.8 782.62 171.47C788.04 174.83 794.27 177.41 800.01 180.46C804.98 183.02 809.95 185.59 815.82 186.81C833.42 190.45 851.89 188.14 871.06 181.98C886.84 176.86 899.86 166.57 908.15 151.04C920.09 128.84 915.15 104.74 902.37 90.1001ZM887.06 133.3C886.55 134.6 885.81 135.92 884.86 137.21C875.46 152.58 860.69 160.39 844.96 158.36C821.59 155.21 800.86 149.29 785.27 133.99C784.77 133.5 784.27 132.99 783.78 132.48C783.39 132.07 782.99 131.64 782.59 131.19C781.39 129.82 780.15 128.25 778.9 126.55C778.08 125.41 777.24 124.22 776.42 122.98C776.01 122.36 775.6 121.74 775.2 121.1C774.8 120.47 774.4 119.83 774 119.18C770.85 114.02 768.06 108.57 766.37 104.2C765.12 101.18 764.58 97.6101 764.08 94.0501C763.92 92.8601 763.76 91.6701 763.58 90.5001C763.54 90.1701 763.5 89.8401 763.48 89.5101V89.4901C763.44 88.8601 763.44 88.2301 763.48 87.6001C763.51 86.9701 763.59 86.3401 763.7 85.7201C764.35 82.0201 766.31 78.4401 769.45 75.3401C769.71 75.0801 769.97 74.8201 770.25 74.5701C771.39 73.4701 772.56 72.4001 773.74 71.3501C777.29 68.1901 780.99 65.1901 784.7 62.1801C794.66 54.5901 812.3 56.0001 821.76 57.6801C824 57.7301 826.16 59.3301 827.75 60.9801C831.08 64.1401 861.29 92.3601 873.42 102.72C874.28 103.62 875.29 104.35 876.19 104.96C877.62 105.79 879 106.91 880.1 108.05C880.65 108.62 881.15 109.22 881.6 109.85C882.06 110.48 882.47 111.13 882.85 111.81C883.04 112.15 883.22 112.5 883.39 112.85C883.74 113.55 884.05 114.28 884.34 115.02C884.91 116.5 885.39 118.05 885.81 119.64C886.35 121.62 886.8 123.67 887.29 125.71C887.31 125.78 887.32 125.84 887.34 125.91C887.45 126.41 887.57 126.91 887.7 127.41C887.73 127.53 887.75 127.65 887.77 127.77C887.8 127.91 887.82 128.05 887.83 128.19C887.86 128.39 887.88 128.59 887.89 128.8C887.96 130.08 887.73 131.42 887.26 132.78C887.2 132.95 887.14 133.13 887.07 133.3H887.06Z" fill="white"/>
<path d="M1043.13 61.1601C1035.67 60.2501 1028.33 61.6401 1021.03 62.7701C1006.99 65.3701 987.52 70.6101 977.24 84.3301C973.77 89.2401 969.73 93.8201 966.2 99.2301C955.94 114.48 953.25 131.42 958.63 149.35C961.64 159.88 968.09 165.75 977.75 165.4C978.15 165.45 978.35 165.47 978.79 165.27L980.6 165.49C980.83 165.26 981.24 165.31 981.44 165.34C986.2 164.91 990.87 165.22 995.51 165.79C1000.15 166.36 1004.76 167.17 1009.28 168.74C1015.78 170.81 1022.18 172.1 1028.83 172.91C1033.67 173.5 1038.75 173.87 1043.68 173.71C1048.61 173.55 1053.66 174.17 1058.73 174.53C1062.45 165.84 1062.32 156.94 1063.85 147.73C1062.1 147.01 1060.37 146.03 1058.79 145.59C1058.18 145.52 1057.38 145.42 1056.77 145.34L1052.53 144.82C1045.27 143.93 1041.59 142.21 1042.41 132.15C1042.5 131.4 1042.59 130.65 1042.69 129.9C1043.73 121.39 1045.85 119.11 1052.88 120.23C1063.74 121.81 1074.53 122.37 1085.2 125.46C1097.06 128.94 1098.56 136.75 1096.91 150.26C1095.14 159.69 1093.34 169.38 1091.57 178.81C1088.48 195.7 1076.86 206.98 1062.94 205.28L1058.67 205.01C1054.84 204.54 1050.97 204.32 1047.11 204.1L1028.46 202.58C1025.4 202.46 1022.18 202.07 1019.12 201.94C1017.71 201.77 1016.47 201.87 1015.26 201.72C999.7 200.07 984.1 198.67 968.66 196.02C960.42 194.76 952.19 191.72 944.63 188.26C934.94 183.77 930.02 173.77 927.63 161.55C924.29 145.4 926.24 129.38 931.63 113.79C936.05 101.12 941.24 88.8101 946.43 76.4901C948.51 71.1601 951.92 66.7501 956.01 63.4401C957.84 61.8901 959.43 60.5601 961.26 59.0001L971.53 50.3501C973.33 49.0501 975.16 47.4901 976.75 46.1701C978.34 44.8401 980.11 43.7901 982.05 43.0101C1003.09 33.3901 1019.72 26.2901 1041.71 28.9801C1048.37 29.8001 1054.73 31.3401 1061.2 33.6501C1065.89 35.4901 1068.42 39.8701 1068.33 45.6901C1068.28 52.8001 1066.96 60.2501 1065.87 67.4901C1065.53 70.2401 1063.85 72.3201 1061.47 73.3001C1059.13 74.0301 1057.23 72.7801 1055.87 70.5801C1054.7 68.4101 1053.57 65.9801 1052.23 63.5301C1049.13 62.1301 1046.13 61.5101 1043.1 61.1401" fill="white"/>
</g>
<defs>
<clipPath id="clip0_36_389">
<rect width="1097.48" height="290.62" fill="white"/>
</clipPath>
</defs>
</svg>
