<svg width="169" height="259" viewBox="0 0 169 259" fill="none" xmlns="http://www.w3.org/2000/svg">
<g clip-path="url(#clip0_52_394)">
<path d="M163.32 127.08C152.44 126.96 85.9901 133.98 58.7901 166.74C58.7101 166.84 58.6201 166.97 58.5401 167.09C56.4101 190.74 52.0601 214.8 44.9001 238.54C61.3301 202.56 76.5301 168.01 82.4801 159.93C104.94 132.13 159.68 127.32 168.6 127.56C159.77 127.25 108.37 119.18 83.0201 93.0099C65.7401 72.3299 46.5801 19.2199 43.9901 16.4499C50.1301 37.2499 55.0601 61.1899 57.7901 86.9599C58.0601 87.2799 58.3301 87.5899 58.6001 87.8899C89.9801 117.97 152.56 126.93 163.32 127.08Z" fill="#EDA7CA"/>
<path d="M27.4801 79.42C31.1101 85.55 34.8501 91.05 38.5301 95.19C63.8001 119.73 115.24 127.39 124.05 127.68C115.14 127.45 60.3701 132.05 37.9801 158.14C36.1201 160.52 33.3501 165.34 29.9501 171.87C27.5301 200.55 21.9701 229.78 12.3901 258.48C32.8901 217.41 51.1601 177.22 58.5401 167.09C58.6201 166.98 58.7101 166.85 58.7901 166.74C85.9901 133.99 152.44 126.96 163.32 127.08C152.56 126.93 89.9801 117.96 58.6001 87.89C58.3301 87.59 58.0601 87.28 57.7901 86.96C36.6201 62.37 11.9701 2.95997 8.65009 0.00996573C16.8501 23.24 23.5301 50.22 27.4901 79.43" fill="#F26B24"/>
<path d="M124.06 127.67C115.24 127.39 63.8101 119.72 38.5401 95.1799C34.8701 91.0499 31.1301 85.5399 27.4901 79.4099C14.0401 56.7299 1.99008 25.4699 0.0100814 23.4499C16.7301 78.4199 24.1701 156.99 0.880058 231.81C11.9101 208.71 22.4901 186.17 29.9601 171.86C33.3701 165.33 36.1301 160.51 37.9901 158.13C60.3801 132.05 115.15 127.44 124.06 127.67Z" fill="#86D0CC"/>
</g>
<defs>
<clipPath id="clip0_52_394">
<rect width="168.6" height="258.47" fill="white" transform="translate(168.6 258.47) rotate(-180)"/>
</clipPath>
</defs>
</svg>
