<svg width="169" height="259" viewBox="0 0 169 259" fill="none" xmlns="http://www.w3.org/2000/svg">
<g clip-path="url(#clip0_52_390)">
<path d="M5.28 131.39C16.16 131.51 82.61 124.49 109.81 91.7301C109.89 91.6301 109.98 91.5001 110.06 91.3801C112.19 67.7301 116.54 43.6701 123.7 19.9301C107.27 55.9101 92.07 90.4601 86.12 98.5401C63.66 126.34 8.92 131.15 0 130.91C8.83 131.22 60.23 139.29 85.58 165.46C102.86 186.14 122.02 239.25 124.61 242.02C118.47 221.22 113.54 197.28 110.81 171.51C110.54 171.19 110.27 170.88 110 170.58C78.62 140.5 16.04 131.54 5.28 131.39Z" fill="#EDA7CA"/>
<path d="M141.12 179.05C137.49 172.92 133.75 167.42 130.07 163.28C104.8 138.74 53.36 131.08 44.55 130.79C53.46 131.02 108.23 126.42 130.62 100.33C132.48 97.95 135.25 93.13 138.65 86.6C141.07 57.92 146.63 28.69 156.21 -0.0100098C135.71 41.06 117.44 81.25 110.06 91.38C109.98 91.49 109.89 91.62 109.81 91.73C82.61 124.48 16.16 131.51 5.28003 131.39C16.04 131.54 78.62 140.51 110 170.58C110.27 170.88 110.54 171.19 110.81 171.51C131.98 196.1 156.63 255.51 159.95 258.46C151.75 235.23 145.07 208.25 141.11 179.04" fill="#F26B24"/>
<path d="M44.54 130.8C53.36 131.08 104.79 138.75 130.06 163.29C133.73 167.42 137.47 172.93 141.11 179.06C154.56 201.74 166.61 233 168.59 235.02C151.87 180.05 144.43 101.48 167.72 26.66C156.69 49.76 146.11 72.3 138.64 86.61C135.23 93.14 132.47 97.96 130.61 100.34C108.22 126.42 53.45 131.03 44.54 130.8Z" fill="#86D0CC"/>
</g>
<defs>
<clipPath id="clip0_52_390">
<rect width="168.6" height="258.47" fill="white"/>
</clipPath>
</defs>
</svg>
